<svg width="64" height="64" viewBox="0 0 64 64" fill="none" xmlns="http://www.w3.org/2000/svg">
  <!-- Gradient Definitions -->
  <defs>
    <linearGradient id="primaryGradient" x1="0%" y1="0%" x2="100%" y2="100%">
      <stop offset="0%" style="stop-color:#ff6b35;stop-opacity:1" />
      <stop offset="100%" style="stop-color:#ff8456;stop-opacity:1" />
    </linearGradient>
    <linearGradient id="secondaryGradient" x1="0%" y1="0%" x2="100%" y2="0%">
      <stop offset="0%" style="stop-color:#ff8456;stop-opacity:0.6" />
      <stop offset="100%" style="stop-color:#ff6b35;stop-opacity:0.8" />
    </linearGradient>
    <linearGradient id="accentGradient" x1="0%" y1="0%" x2="0%" y2="100%">
      <stop offset="0%" style="stop-color:#ff6b35;stop-opacity:0.3" />
      <stop offset="100%" style="stop-color:#ff8456;stop-opacity:0.1" />
    </linearGradient>
  </defs>

  <!-- Base Container (representing organized structure) -->
  <rect x="8" y="12" width="48" height="40" rx="8" fill="url(#accentGradient)"
    stroke="url(#primaryGradient)" stroke-width="1" opacity="0.3" />

  <!-- Task List Lines -->
  <rect x="16" y="20" width="24" height="2" rx="1" fill="url(#secondaryGradient)" />
  <rect x="16" y="26" width="32" height="2" rx="1" fill="url(#secondaryGradient)" />
  <rect x="16" y="32" width="20" height="2" rx="1" fill="url(#secondaryGradient)" />
  <rect x="16" y="38" width="28" height="2" rx="1" fill="url(#secondaryGradient)" />

  <!-- Check Boxes -->
  <rect x="44" y="18" width="6" height="6" rx="1" fill="url(#primaryGradient)" />
  <path d="M45.5 21 L47 22.5 L50.5 19" stroke="white" stroke-width="1.5" stroke-linecap="round"
    stroke-linejoin="round" fill="none" />

  <rect x="52" y="24" width="6" height="6" rx="1" fill="url(#primaryGradient)" />
  <path d="M53.5 27 L55 28.5 L58.5 25" stroke="white" stroke-width="1.5" stroke-linecap="round"
    stroke-linejoin="round" fill="none" />

  <rect x="40" y="30" width="6" height="6" rx="1" fill="url(#primaryGradient)" />
  <path d="M41.5 33 L43 34.5 L46.5 31" stroke="white" stroke-width="1.5" stroke-linecap="round"
    stroke-linejoin="round" fill="none" />

  <!-- Central Dynamic Check Mark -->
  <circle cx="32" cy="45" r="12" fill="url(#primaryGradient)" opacity="0.9" />
  <path d="M26 45 L30 49 L38 39"
    stroke="white"
    stroke-width="3"
    stroke-linecap="round"
    stroke-linejoin="round"
    fill="none" />

  <!-- Floating Elements (representing productivity) -->
  <circle cx="12" cy="16" r="1.5" fill="url(#primaryGradient)" opacity="0.6" />
  <circle cx="56" cy="14" r="2" fill="url(#primaryGradient)" opacity="0.4" />
  <circle cx="54" cy="52" r="1" fill="url(#primaryGradient)" opacity="0.5" />

  <!-- Success Indicators -->
  <path d="M14 8 L16 10 L20 6" stroke="url(#primaryGradient)" stroke-width="2"
    stroke-linecap="round" stroke-linejoin="round" fill="none" opacity="0.6" />
  <path d="M50 58 L52 60 L56 56" stroke="url(#primaryGradient)" stroke-width="2"
    stroke-linecap="round" stroke-linejoin="round" fill="none" opacity="0.4" />
</svg> 